<?xml version="1.0" encoding="UTF-8" standalone="no"?>
<svg width="36px" height="36px" viewBox="0 0 36 36" version="1.1" xmlns="http://www.w3.org/2000/svg" xmlns:xlink="http://www.w3.org/1999/xlink" xmlns:sketch="http://www.bohemiancoding.com/sketch/ns">
    <!-- Generator: Sketch 3.4 (15575) - http://www.bohemiancoding.com/sketch -->
    <title>Oval 1 Copy</title>
    <desc>Created with Sketch.</desc>
    <defs></defs>
    <g id="Page-1" stroke="none" stroke-width="1" fill="none" fill-rule="evenodd" sketch:type="MSPage">
        <g id="Large-Device-Desktops" sketch:type="MSArtboardGroup" transform="translate(-1199.000000, -35.000000)" fill="#FDFDFD">
            <path d="M1217,71 C1226.94113,71 1235,62.9411255 1235,53 C1235,43.0588745 1226.94113,35 1217,35 C1207.05887,35 1199,43.0588745 1199,53 C1199,62.9411255 1207.05887,71 1217,71 Z M1215.50234,62.5203125 C1214.75656,61.5664015 1214.07582,60.4347331 1213.46012,59.1252734 C1212.84441,57.8158138 1212.30242,56.4456712 1211.83414,55.0148047 C1211.36586,53.5839382 1210.97563,52.1487572 1210.66344,50.7092188 C1210.35125,49.2696803 1210.12578,47.9428967 1209.98703,46.7288281 L1210.2732,46.59875 L1210.2732,46.3125781 C1210.62008,46.1391398 1210.86289,46.004727 1211.00164,45.9093359 C1211.14039,45.8139448 1211.24445,45.7402346 1211.31383,45.6882031 C1211.3832,45.6361716 1211.44391,45.5928127 1211.49594,45.558125 C1211.54797,45.5234373 1211.65203,45.4627348 1211.80813,45.3760156 L1211.80813,44.8817188 C1212.05094,44.8817188 1212.27641,44.873047 1212.48453,44.8557031 C1212.69266,44.8383593 1212.85742,44.8296875 1212.97883,44.8296875 C1213.11758,44.8296875 1213.29535,44.8383593 1213.51215,44.8557031 C1213.72895,44.873047 1213.90672,44.8817188 1214.04547,44.8817188 C1214.27094,45.6101599 1214.51375,46.3602696 1214.77391,47.1320703 C1215.03406,47.903871 1215.29855,48.6669884 1215.56738,49.4214453 C1215.83621,50.1759022 1216.1007,50.9086683 1216.36086,51.6197656 C1216.62102,52.3308629 1216.8725,52.9985906 1217.11531,53.6229687 C1217.28875,53.1546852 1217.47953,52.6430497 1217.68766,52.0880469 C1217.89578,51.5330441 1218.12992,50.9953932 1218.39008,50.4750781 C1218.65024,49.954763 1218.93207,49.4864865 1219.23559,49.0702344 C1219.5391,48.6539823 1219.87297,48.3417979 1220.23719,48.1336719 L1220.23719,47.8475 C1220.56672,47.6740616 1220.83988,47.5136335 1221.05668,47.3662109 C1221.27348,47.2187883 1221.46426,47.0843756 1221.62902,46.9629688 C1221.79379,46.8415619 1221.95855,46.7461722 1222.12332,46.6767969 C1222.28809,46.6074215 1222.50055,46.5727344 1222.7607,46.5727344 C1223.07289,46.5727344 1223.39375,46.6074215 1223.72328,46.6767969 C1224.05281,46.7461722 1224.39101,46.8328901 1224.73789,46.9369531 L1224.71187,46.9369531 C1225.00672,47.0236723 1225.22351,47.0843748 1225.36227,47.1190625 C1225.50102,47.1537502 1225.57039,47.2144527 1225.57039,47.3011719 C1225.57039,47.4399226 1225.34492,47.7347634 1224.89398,48.1857031 C1224.61648,48.515236 1224.33465,48.8967947 1224.04848,49.3303906 C1223.7623,49.7639865 1223.48914,50.2322631 1223.22898,50.7352344 C1222.96883,51.2382056 1222.72602,51.7628488 1222.50055,52.3091797 C1222.27508,52.8555105 1222.0843,53.3974973 1221.9282,53.9351563 C1221.72008,54.6462536 1221.52496,55.3443325 1221.34285,56.0294141 C1221.16074,56.7144956 1220.97863,57.3518721 1220.79652,57.9415625 C1220.61441,58.5312529 1220.43664,59.0342167 1220.2632,59.4504687 C1220.08976,59.8667208 1219.90766,60.1528898 1219.71688,60.3089844 L1219.71688,60.8032813 C1219.57812,60.8032813 1219.44805,60.8336325 1219.32664,60.8943359 C1219.20523,60.9550394 1219.07949,61.0330855 1218.94941,61.1284766 C1218.81934,61.2238677 1218.67191,61.3192573 1218.50715,61.4146484 C1218.34238,61.5100395 1218.14727,61.5924215 1217.9218,61.6617969 L1217.9218,62.0520312 L1217.47953,62.0520312 C1217.41016,62.1907819 1217.31043,62.2991793 1217.18035,62.3772266 C1217.05027,62.4552738 1216.9202,62.5116405 1216.79012,62.5463281 C1216.66004,62.5810158 1216.54297,62.6026953 1216.43891,62.6113672 C1216.33484,62.6200391 1216.26547,62.624375 1216.23078,62.624375 L1216.30883,62.5983594 C1216.27414,62.6157032 1216.24379,62.6287109 1216.21777,62.6373828 C1216.19176,62.6460547 1216.13539,62.6677342 1216.04867,62.7024219 L1215.50234,62.5203125 Z" id="Oval-1-Copy" sketch:type="MSShapeGroup"></path>
        </g>
    </g>
</svg>