<?xml version="1.0" encoding="UTF-8" standalone="no"?>
<svg width="145px" height="199px" viewBox="0 0 145 199" version="1.1" xmlns="http://www.w3.org/2000/svg" xmlns:xlink="http://www.w3.org/1999/xlink" xmlns:sketch="http://www.bohemiancoding.com/sketch/ns">
    <!-- Generator: Sketch 3.5.1 (25234) - http://www.bohemiancoding.com/sketch -->
    <title>ricardo</title>
    <desc>Created with Sketch.</desc>
    <defs>
        <linearGradient x1="49.9617424%" y1="100.16535%" x2="49.9617424%" y2="0.0448328267%" id="linearGradient-1">
            <stop stop-color="#423A40" offset="0%"></stop>
            <stop stop-color="#251E26" offset="100%"></stop>
        </linearGradient>
    </defs>
    <g id="Page-1" stroke="none" stroke-width="1" fill="none" fill-rule="evenodd" sketch:type="MSPage">
        <g id="Desktop-HD-Copy" sketch:type="MSArtboardGroup" transform="translate(-55.000000, -224.000000)">
            <g id="ricardo" sketch:type="MSLayerGroup" transform="translate(55.000000, 224.000000)">
                <g id="Group" sketch:type="MSShapeGroup">
                    <g transform="translate(0.000000, 107.000000)" id="Shape">
                        <path d="M132.8,34.8 L132.8,34.8 C133.3,34.8 133.7,35.2 133.7,35.7 C133.7,36.6 132.8,36.6 132.8,36.6 L132.8,36.6 C131.6,36.6 130.6,37.6 130.6,38.8 C130.6,40 131.6,41 132.8,41 L132.8,41 L132.8,42.8 L132.8,42.8 C130.6,42.8 128.8,41 128.8,38.8 C128.8,36.6 130.6,34.9 132.8,34.8 L132.8,34.8 Z" fill="#32393C"></path>
                        <g fill="#DBBAB2">
                            <path d="M127.1,10 C127.1,10 130.2,1.2 136.6,0.8 C143.1,0.4 144.5,7.5 144.6,10.6 C144.8,13.6 144.4,20.2 140,28.9 C135.6,37.6 135,38.8 131.7,39 C128.4,39.2 126.7,35.4 126.3,35 C125.9,34.5 127.1,10 127.1,10 L127.1,10 Z"></path>
                            <path d="M18.5,10 C18.5,10 15.4,1.2 9,0.8 C2.5,0.4 1.1,7.5 1,10.6 C0.8,13.6 1.2,20.2 5.6,28.9 C10,37.6 10.6,38.8 13.9,39 C17.2,39.2 18.9,35.4 19.3,35 C19.7,34.5 18.5,10 18.5,10 L18.5,10 Z"></path>
                        </g>
                        <path d="M132.7,34.8 C132.7,34.8 132.6,34.8 132.7,34.8 C132.2,34.8 131.8,35.2 131.8,35.7 C131.8,36.6 132.7,36.6 132.7,36.6 L132.7,36.6 C133.9,36.6 134.9,37.6 134.9,38.8 C134.9,40 133.9,41 132.7,41 L132.7,41 L132.7,42.8 L132.7,42.8 C134.9,42.8 136.7,41 136.7,38.8 C136.6,36.6 134.9,34.9 132.7,34.8 L132.7,34.8 Z" fill="#32393C"></path>
                    </g>
                    <path d="M77.9,25.9 L67.8,25.9 C39.6,25.9 16.8,48.7 16.8,76.9 L17.8,135.7 C18.4,176.9 48.7,197.4 71.8,199 L72.1,199 L73.5,199 L73.8,199 C97,197.5 127.2,177 127.8,135.7 L128.8,76.9 C128.9,48.7 106,25.9 77.9,25.9 L77.9,25.9 Z" id="Shape" fill="#EAC7BC"></path>
                    <path d="M94.6,159.9 C88.4,164.1 80.7,166.4 72.9,166.5 C65.1,166.6 57.4,164.3 51.1,160.2" id="Shape" stroke="#B97D7C" stroke-width="3"></path>
                    <path d="M87.5,141.5 C87.6,142.1 87.5,142.8 87.3,143.4 C86.9,144.9 85.6,146.7 83.8,146.4 C81.8,146.1 79.2,146.8 77.7,148.2 C76.5,149.3 75,150.6 73.3,150.7 L72.8,150.7 L72.3,150.7 C70.6,150.6 69,149.3 67.8,148.2 C66.3,146.8 63.7,146.1 61.7,146.4 C59.9,146.7 58.7,144.9 58.2,143.4 C58,142.8 58,142.1 58,141.5 C57.3,142.9 56.9,144.5 57.4,146 C57.9,147.6 59.2,149.5 61.1,149.2 C63.2,148.8 66,149.7 67.5,151.1 C68.8,152.3 70.4,153.6 72.3,153.8 L72.8,153.8 L73.3,153.8 C75.1,153.7 76.7,152.3 78,151.1 C79.6,149.7 82.3,148.8 84.4,149.2 C86.2,149.5 87.6,147.6 88.1,146 C88.6,144.6 88.2,143 87.5,141.5 L87.5,141.5 Z" id="Shape" fill="#CEAFAA"></path>
                    <path d="M129.9,58.6 C126.5,50.1 119.8,41.9 111.5,35.4 C111.9,31.3 110.5,25.1 101.8,18.8 C101.8,18.8 104.9,23.9 102.8,23.9 C100.7,23.9 100.2,18.8 87.4,15.2 C74.6,11.6 70.2,6.7 64.6,0.1 C64.6,0.1 63.1,5.5 65.4,9.6 C65.4,9.6 54.1,10.1 46.4,4 C46.4,4 46.9,14.5 50.8,16.8 C50.8,16.8 44.6,17.1 40.5,15 C40.5,15 41.3,25.3 45.4,27.6 C45.4,27.6 37.2,27.6 34.9,22.7 C34.9,22.7 35.9,28.6 37.5,30.1 C39,31.6 34.2,30.4 32.6,28.3 C32.3,27.9 33.1,33 33.4,33.8 C33.6,34.3 33.9,34.9 34.2,35.4 C25.9,41.8 19.2,50 15.8,58.5 C10.3,72.2 10.1,87.9 12.3,102.2 C13.3,108.7 14,115.2 14.9,121.7 C15,122.4 15.7,131 16.3,131.1 L19,131.7 C19,125.9 19.2,120 19.7,114.2 C20.5,105 24.9,97 24.3,87.6 C24,81.9 20.7,75.8 22.3,70.3 C23.6,66 26.5,62.6 30,59.8 C36.8,54.4 46.2,51 55.1,50.6 C61.3,50.3 67.4,50.9 73.6,51.1 C79.3,51.3 85,50.4 90.7,50.6 C99.5,51 109,54.4 115.8,59.8 C119.3,62.6 122.2,66.1 123.5,70.3 C125.1,75.8 121.9,81.9 121.5,87.6 C120.9,97 125.3,105 126.1,114.2 C126.6,120 126.8,125.9 126.8,131.7 L129.5,131.1 C130.1,130.9 130.8,122.4 130.9,121.7 C131.9,115.2 132.5,108.7 133.5,102.2 C135.6,88 135.4,72.4 129.9,58.6 L129.9,58.6 Z" id="Shape" fill="url(#linearGradient-1)"></path>
                    <path d="M72.8,177.3 C77.9,177.3 82.5,178.3 86.1,179.8 C83.2,176.9 78.3,175 72.8,175 C67.3,175 62.5,176.9 59.5,179.8 C63.1,178.2 67.7,177.3 72.8,177.3 L72.8,177.3 Z" id="Shape" fill="#DBBAB2"></path>
                    <g transform="translate(25.000000, 97.000000)" id="Shape" fill="#251E26">
                        <path d="M63.6,2.2 L64,2.2 C66.4,2.2 68.9,2.3 71.3,2.3 C78.1,2.2 82.9,1.4 89.7,1 C92.2,0.9 94.9,4.8 94.6,7.7 C94.2,10.5 93.5,8.4 84.8,6.6 C76.2,4.8 60.2,8 60.2,8 C60,6.9 61.6,3.2 62.8,2.5 C63,2.3 63.3,2.2 63.6,2.2 L63.6,2.2 Z"></path>
                        <path d="M32,2.2 L31.6,2.2 C29.2,2.2 26.7,2.3 24.3,2.3 C17.5,2.2 12.7,1.4 5.9,1 C3.4,0.9 0.7,4.8 1,7.7 C1.4,10.5 2.1,8.4 10.8,6.6 C19.4,4.8 35.4,8 35.4,8 C35.6,6.9 34,3.2 32.8,2.5 C32.6,2.3 32.3,2.2 32,2.2 L32,2.2 Z"></path>
                    </g>
                    <g transform="translate(11.000000, 101.000000)">
                        <path d="M111.3,15.2 C111.5,28.7 101.7,33.1 92.9,33.3 C88.3,33.4 84.1,33 79.9,30.8 C74.3,27.8 70.8,20.6 70.9,14.4 C71.1,5.9 83.9,3.9 91.2,3.8 L93.4,3.8 C101.7,3.9 111.1,4.9 111.3,15.2 Z" id="Shape" opacity="0.5" fill="#C8D5E9"></path>
                        <path d="M30.2,3.8 C21.9,3.9 12.5,4.9 12.3,15.2 C12.1,28.7 21.9,33.1 30.7,33.3 C35.3,33.4 39.5,33 43.7,30.8 C49.3,27.8 52.8,20.6 52.7,14.4 C52.5,5.9 39.7,3.9 32.4,3.8 L30.2,3.8 L30.2,3.8 Z" id="Shape" opacity="0.5" fill="#C8D5E9"></path>
                        <path d="M85.8,32.8 C88.1,33.2 90.4,33.3 92.9,33.3 C101.6,33.1 111.5,28.7 111.3,15.2 C111.3,12.6 110.6,10.7 109.6,9.1 L85.8,32.8 L85.8,32.8 Z" id="Shape" opacity="0.25" fill="#FFFFFF"></path>
                        <path d="M27.4,33.1 C28.5,33.3 29.6,33.4 30.7,33.4 C35.3,33.5 39.5,33.1 43.7,30.9 C49.3,27.9 52.8,20.7 52.7,14.5 C52.6,12.6 52,11 50.9,9.8 L27.4,33.1 L27.4,33.1 Z" id="Shape" opacity="0.25" fill="#FFFFFF"></path>
                        <path d="M122.6,5.9 C115.9,5.5 109.9,3.1 103.4,1.8 C97,0.5 90.3,0.3 83.8,1.2 C79.3,1.8 75,3.1 70.7,4.6 C66.2,6.2 57.3,6.2 52.8,4.6 C48.5,3.1 44.2,1.8 39.7,1.2 C33.2,0.3 26.6,0.5 20.1,1.8 C13.6,3.1 7.6,5.4 0.9,5.9 C0.9,5.9 0.2,9 1.2,10.4 C2.2,11.8 7.4,10.4 9.1,18.7 C10.8,27 12.9,37 31.8,37 C50.7,37 54.8,22.8 55.6,20.1 C56.6,16.5 55.3,11.5 60.4,11.5 L62.9,11.5 C68.1,11.5 66.7,16.6 67.7,20.1 C68.5,22.8 72.5,37 91.5,37 C110.5,37 112.5,27 114.2,18.7 C115.9,10.4 121.1,11.8 122.1,10.4 C123.1,9 122.6,5.9 122.6,5.9 L122.6,5.9 Z M43.7,30.8 C39.5,33 35.4,33.4 30.7,33.3 C22,33.1 12.1,28.7 12.3,15.2 C12.5,4.9 21.9,3.9 30.2,3.8 L32.3,3.8 C39.6,3.9 52.4,5.9 52.6,14.4 C52.8,20.5 49.3,27.8 43.7,30.8 L43.7,30.8 Z M92.9,33.3 C88.3,33.4 84.1,33 79.9,30.8 C74.3,27.8 70.8,20.6 70.9,14.4 C71.1,5.9 83.9,3.9 91.2,3.8 L93.3,3.8 C101.6,3.9 111,4.9 111.2,15.2 C111.5,28.7 101.6,33.1 92.9,33.3 L92.9,33.3 Z" id="Shape" fill="#32393C"></path>
                        <circle id="Oval" fill="#657577" cx="8" cy="8.5" r="1.1"></circle>
                        <circle id="Oval" fill="#657577" cx="4.5" cy="8.5" r="1.1"></circle>
                        <circle id="Oval" fill="#657577" cx="118.6" cy="8.5" r="1.1"></circle>
                        <circle id="Oval" fill="#657577" cx="115.2" cy="8.5" r="1.1"></circle>
                    </g>
                </g>
            </g>
        </g>
    </g>
</svg>