<?xml version="1.0" standalone="no"?>
<!DOCTYPE svg PUBLIC "-//W3C//DTD SVG 20010904//EN"
 "http://www.w3.org/TR/2001/REC-SVG-20010904/DTD/svg10.dtd">
<svg version="1.0" xmlns="http://www.w3.org/2000/svg"
 width="260.000000pt" height="260.000000pt" viewBox="0 0 260.000000 260.000000"
 preserveAspectRatio="xMidYMid meet">
<metadata>
Created by potrace 1.11, written by Peter Selinger 2001-2013
</metadata>
<g transform="translate(0.000000,260.000000) scale(0.100000,-0.100000)"
fill="#000000" stroke="none">
<path d="M1115 2535 c-385 -61 -714 -288 -902 -620 -306 -543 -168 -1225 327
-1604 452 -347 1068 -347 1520 0 548 420 651 1200 229 1749 -275 360 -734 545
-1174 475z m70 -920 c45 -132 94 -269 107 -305 29 -74 20 -82 83 73 19 48 47
107 61 130 62 99 192 210 261 223 32 6 189 -28 207 -46 5 -5 -3 -22 -22 -44
-111 -127 -185 -283 -264 -560 -33 -116 -73 -239 -89 -272 -16 -34 -29 -66
-29 -70 -1 -5 -28 -22 -60 -39 -33 -16 -60 -35 -60 -42 0 -7 -5 -13 -12 -13
-6 0 -19 -7 -29 -16 -21 -19 -86 -35 -114 -28 -47 12 -179 261 -255 479 -78
226 -168 634 -141 643 6 2 11 9 11 15 0 7 25 27 55 45 37 22 55 40 55 53 0 18
6 20 76 17 l76 -3 83 -240z"/>
</g>
</svg>
