<?xml version="1.0" encoding="UTF-8" standalone="no"?>
<svg width="500px" height="30px" viewBox="0 0 500 30" version="1.1" xmlns="http://www.w3.org/2000/svg" xmlns:xlink="http://www.w3.org/1999/xlink" xmlns:sketch="http://www.bohemiancoding.com/sketch/ns">
    <!-- Generator: Sketch 3.5.1 (25234) - http://www.bohemiancoding.com/sketch -->
    <title>Page 1</title>
    <desc>Created with Sketch.</desc>
    <defs>
        <path id="path-1" d="M0,0 L30,0 L30,500 L0,500 L0,0 Z"></path>
    </defs>
    <g id="Page-1" stroke="none" stroke-width="1" fill="none" fill-rule="evenodd" sketch:type="MSPage">
        <g id="Desktop-HD-Copy" sketch:type="MSArtboardGroup" transform="translate(-470.000000, -3983.000000)">
            <g id="Page-1" sketch:type="MSLayerGroup" transform="translate(720.000000, 3998.000000) rotate(-270.000000) translate(-720.000000, -3998.000000) translate(705.000000, 3748.000000)">
                <path d="M12,1.9952 L12,218.7872 C12,218.8412 12.027,218.8872 12.031,218.9402 C12.198,230.1292 15.758,238.5172 18.93,245.9192 C21.65,252.2712 24,257.7562 24,264.0382 C24,269.5612 21.381,276.0092 14,276.0092 C6.759,276.0092 4.108,269.8052 4.009,264.3562 C4.009,264.3412 4.017,264.3282 4.016,264.3142 L4,264.0382 C4,261.7052 4.828,259.4332 6.33,257.6412 C6.644,257.2682 6.797,256.8142 6.797,256.3622 C6.797,255.7922 6.553,255.2262 6.08,254.8302 C5.234,254.1242 3.973,254.2352 3.264,255.0812 C1.158,257.5882 0,260.7702 0,264.0382 C0,273.5852 5.627,280.0002 14,280.0002 C22.373,280.0002 28,273.5852 28,264.0382 C28,256.9392 25.381,250.8242 22.607,244.3512 C19.359,236.7692 16,228.9292 16,218.1482 L16,1.9952 C16,0.8932 15.105,0.0002 14,0.0002 C12.894,0.0002 12,0.8932 12,1.9952" id="Fill-1" fill="#718095" sketch:type="MSShapeGroup"></path>
                <g id="Group-5">
                    <mask id="mask-2" sketch:name="Clip 4" fill="white">
                        <use xlink:href="#path-1"></use>
                    </mask>
                    <g id="Clip-4"></g>
                    <path d="M14,498.0142 C14,499.1112 14.894,500.0002 16,500.0002 C17.105,500.0002 18,499.1112 18,498.0142 L18,282.0002 C16.73,282.2912 15.398,282.4572 14,282.4572 L14,498.0142 Z" id="Fill-3" fill="#718095" sketch:type="MSShapeGroup" mask="url(#mask-2)"></path>
                </g>
                <path d="M25.9906,235.363 C25.9916,235.377 25.9836,235.389 25.9846,235.403 L25.9996,235.68 C25.9996,238.019 25.1716,240.296 23.6696,242.092 C22.9586,242.939 23.0726,244.2 23.9196,244.909 C24.7656,245.617 26.0276,245.506 26.7366,244.658 C28.8416,242.144 29.9996,238.955 29.9996,235.68 C29.9996,227.333 25.7186,221.378 19.0686,219.991 C19.1216,221.456 19.2366,222.87 19.4126,224.232 C24.0916,225.863 25.9096,230.865 25.9906,235.363" id="Fill-6" fill="#718095" sketch:type="MSShapeGroup"></path>
                <path d="M13.27,273.2742 C13.508,273.2952 13.743,273.3202 14,273.3202 C15.288,273.3202 16.332,273.0422 17.191,272.5922 C15.946,265.3232 13.407,259.3092 11.07,253.8422 C8.35,247.4742 6,241.9762 6,235.6792 C6,232.2182 7.024,228.3952 9.595,226.0152 C9.388,224.5312 9.242,222.9952 9.153,221.4072 C4.706,223.9272 2,229.0462 2,235.6792 C2,242.7962 4.619,248.9252 7.393,255.4142 C9.733,260.8912 12.113,266.5212 13.27,273.2742" id="Fill-8" fill="#718095" sketch:type="MSShapeGroup"></path>
            </g>
        </g>
    </g>
</svg>